# xmcd
#
# Track frame offsets:
#	182
#	21590
#	37172
#	51917
#	66780
#	82215
#	98065
#	112432
#	127585
#	142340
#	153275
#	163575
#	177402
#	189857
#	207565
#	217585
#
# Disc length: 3039 seconds
#
# Revision: 7
# Processed by: cddbd v1.5.2PL0 Copyright (c) Steve Scherf et al.
# Submitted via: EasyCDDAExtractor 16.0.6.1
#
DISCID=ed0bdd10
DTITLE=Various Artist - The Greatest Ragtime of the Century
DYEAR=1987
DGENRE=Blues
TTITLE0=Jelly Roll Morton - Shreveport Stomp
TTITLE1=Jelly Roll Morton - Sweet Man
TTITLE2=Jelly Roll Morton - Tom Cat Blues
TTITLE3=Thomas "Fats" Waller - A New Kind of Man with a New Kind of Love for M
TTITLE3=e
TTITLE4=Thomas "Fats" Waller - Nobody but My Baby
TTITLE5=Thomas "Fats" Waller - Got to Cool My Doggies Now
TTITLE6=Scott Joplin - Maple Leaf Rag
TTITLE7=Scott Joplin - Weeping Willow Rag
TTITLE8=Scott Joplin - Something Doing
TTITLE9=James P. Johnson - Steeplechase Rag
TTITLE10=James P. Johnson - Twilight Rag
TTITLE11=Eubie Blake - Charleston Rag
TTITLE12=Eubie Blake - It's Right Here for You
TTITLE13=Eubie Blake - Fare Thee Honey Blues
TTITLE14=Jimmy Blythe - Mr. Freddie Blues
TTITLE15=Jimmy Blythe and Charles Clark - Regal sStomp
EXTD=YEAR: 1987
EXTT0=
EXTT1=
EXTT2=
EXTT3=
EXTT4=
EXTT5=
EXTT6=
EXTT7=
EXTT8=
EXTT9=
EXTT10=
EXTT11=
EXTT12=
EXTT13=
EXTT14=
EXTT15=
PLAYORDER=
